<?xml version="1.0" encoding="UTF-8"?>
<!DOCTYPE svg PUBLIC "-//W3C//DTD SVG 1.1//EN" "http://www.w3.org/Graphics/SVG/1.1/DTD/svg11.dtd">
<svg xmlns="http://www.w3.org/2000/svg" version="1.1" width="403px" height="402px"
     style="shape-rendering:geometricPrecision; text-rendering:geometricPrecision; image-rendering:optimizeQuality; fill-rule:evenodd; clip-rule:evenodd"
>
    <g>
        <path style="opacity:0.994" fill="#2c1f51"
              d="M 183.5,-0.5 C 195.167,-0.5 206.833,-0.5 218.5,-0.5C 296.308,9.48299 352.142,49.8163 386,120.5C 395.151,142.765 400.651,165.765 402.5,189.5C 402.5,196.833 402.5,204.167 402.5,211.5C 395.295,290.111 356.629,347.277 286.5,383C 264.733,392.939 242.066,399.106 218.5,401.5C 206.833,401.5 195.167,401.5 183.5,401.5C 105.692,391.517 49.8583,351.184 16,280.5C 6.84963,258.237 1.34963,235.237 -0.5,211.5C -0.5,204.167 -0.5,196.833 -0.5,189.5C 6.70573,110.887 45.3724,53.7201 115.5,18C 137.267,8.06074 159.934,1.89407 183.5,-0.5 Z"/>
    </g>
    <g>
        <path style="opacity:1" fill="#f8ebf9"
              d="M 212.5,35.5 C 219.271,34.6982 224.104,37.3648 227,43.5C 241.008,88.0226 254.508,132.689 267.5,177.5C 267.048,184.121 263.715,188.621 257.5,191C 264.876,195.267 266.376,201.101 262,208.5C 260.316,210.351 258.483,212.018 256.5,213.5C 259,217.167 261.5,220.833 264,224.5C 264.667,226.5 264.667,228.5 264,230.5C 259.752,236.48 253.918,239.647 246.5,240C 263.561,248.394 276.727,260.894 286,277.5C 293.71,302.261 306.543,323.927 324.5,342.5C 322.517,344.984 320.35,347.317 318,349.5C 305.8,337.431 295.8,323.764 288,308.5C 285.273,314.679 282.94,321.013 281,327.5C 281.61,314.514 281.943,301.514 282,288.5C 277.703,278.073 271.537,268.906 263.5,261C 251.78,253.945 240.613,246.112 230,237.5C 229.252,235.668 228.252,234.001 227,232.5C 222.791,215.093 216.124,198.76 207,183.5C 198.182,173.501 190.515,174.168 184,185.5C 183.857,210.737 191.857,233.07 208,252.5C 210,256.5 212,260.5 214,264.5C 216.229,273.747 219.229,282.747 223,291.5C 228.746,299.917 235.246,307.75 242.5,315C 227.872,309.376 217.372,299.209 211,284.5C 209.187,277.076 206.687,269.91 203.5,263C 201.5,262.333 199.5,262.333 197.5,263C 189.445,269.019 180.445,271.352 170.5,270C 179.606,268.114 187.606,264.114 194.5,258C 191.167,257.667 187.833,257.333 184.5,257C 189.022,255.934 193.355,254.434 197.5,252.5C 194.795,248.305 191.628,244.638 188,241.5C 182.957,243.288 177.79,243.788 172.5,243C 178.596,242.791 183.263,240.291 186.5,235.5C 183.761,228.359 180.761,221.359 177.5,214.5C 172.431,216.359 167.264,217.692 162,218.5C 161.187,228.567 159.853,238.567 158,248.5C 155.431,254.874 153.264,261.374 151.5,268C 151.797,272.309 153.797,275.643 157.5,278C 178.07,292.567 198.07,307.9 217.5,324C 227.85,330.014 237.35,337.18 246,345.5C 253.872,355.574 258.706,366.907 260.5,379.5C 257.446,380.321 254.446,380.321 251.5,379.5C 248.218,365.431 241.218,353.598 230.5,344C 212.093,332.46 194.76,319.46 178.5,305C 169.833,299 161.167,293 152.5,287C 148.578,283.749 145.412,279.916 143,275.5C 141.675,271.572 141.342,267.572 142,263.5C 149.839,244.303 153.506,224.303 153,203.5C 140.537,162.444 127.87,121.444 115,80.5C 112.629,72.0768 115.462,66.2435 123.5,63C 153.371,54.0959 183.037,44.9293 212.5,35.5 Z"/>
    </g>
    <g>
        <path style="opacity:1" fill="#2c1f51"
              d="M 212.5,45.5 C 215.833,45.0268 218,46.3601 219,49.5C 232.14,92.0585 244.974,134.725 257.5,177.5C 257.41,179.425 256.41,180.592 254.5,181C 243.94,183.964 233.44,187.131 223,190.5C 218.797,183.976 213.964,177.809 208.5,172C 193.16,163.791 181.994,167.624 175,183.5C 174.418,190.852 174.585,198.185 175.5,205.5C 172.479,206.005 169.479,206.672 166.5,207.5C 165.558,207.392 164.725,207.059 164,206.5C 151.208,163.789 138.208,121.122 125,78.5C 124.333,76.8333 124.333,75.1667 125,73.5C 154.222,64.0749 183.388,54.7416 212.5,45.5 Z"/>
    </g>
    <g>
        <path style="opacity:1" fill="#ebdeee"
              d="M 205.5,187.5 C 205.56,186.957 205.893,186.624 206.5,186.5C 211.901,194.839 209.901,200.672 200.5,204C 196.62,205.64 192.62,206.307 188.5,206C 186.965,202.994 186.465,199.827 187,196.5C 188.292,198.249 189.458,200.082 190.5,202C 196.709,202.241 202.209,200.407 207,196.5C 207.927,193.137 207.427,190.137 205.5,187.5 Z"/>
    </g>
    <g>
        <path style="opacity:1" fill="#332556"
              d="M 241.5,194.5 C 243.857,194.337 246.19,194.503 248.5,195C 252.373,196.832 254.54,199.665 255,203.5C 253.786,205.049 252.286,206.215 250.5,207C 240.89,209.239 232.557,207.072 225.5,200.5C 230.927,198.487 236.26,196.487 241.5,194.5 Z"/>
    </g>
    <g>
        <path style="opacity:1" fill="#302254"
              d="M 229.5,214.5 C 229.735,213.903 230.235,213.57 231,213.5C 236.585,215.81 242.418,216.977 248.5,217C 251.085,220.175 253.419,223.509 255.5,227C 253.336,229.662 250.502,230.829 247,230.5C 242.2,230.012 237.867,228.345 234,225.5C 232.639,221.657 231.139,217.991 229.5,214.5 Z"/>
    </g>
</svg>
